<?xml version="1.0" encoding="UTF-8" standalone="no"?>
<!-- Generator: Adobe Illustrator 26.0.3, SVG Export Plug-In . SVG Version: 6.00 Build 0)  -->

<svg
   version="1.1"
   id="Layer_1"
   x="0px"
   y="0px"
   viewBox="0 0 294.13 294.44"
   xml:space="preserve"
   width="294.13"
   height="294.44"
   xmlns="http://www.w3.org/2000/svg"
   xmlns:svg="http://www.w3.org/2000/svg"><defs
   id="defs83">
	
	
	
	
</defs>
<g
   id="g2023"
   transform="translate(-342.66,-280.84)"><path
     d="m 395.05,512.35 c 0,-63.35 0,-126.36 0,-189.81 1.51,0 2.83,0 4.15,0 20.73,0 41.45,-0.06 62.18,0.05 2.61,0.01 4.06,-0.76 5.19,-3.07 1.51,-3.09 3.39,-5.99 4.85,-9.45 -4.68,6.1 -10.57,8.49 -17.27,6.63 11.99,-11.88 24.31,-24.09 36.18,-35.86 11.39,11.36 23.65,23.57 35.8,35.69 -7.14,2.03 -13.08,-0.17 -17.41,-7.01 -0.23,0.29 -0.46,0.59 -0.69,0.88 2.21,3.78 4.28,7.66 6.73,11.28 0.52,0.77 2.43,0.82 3.7,0.83 20.6,0.05 41.2,0.04 61.81,0.04 1.35,0 2.7,0 4.35,0 0,63.34 0,126.45 0,189.81 -63.08,-0.01 -126.17,-0.01 -189.57,-0.01 z m 170.98,-85.17 c -0.6,-0.88 -1.13,-1.55 -1.55,-2.28 -17.54,-30.38 -35.1,-60.75 -52.57,-91.18 -1.19,-2.07 -2.35,-3 -4.87,-2.97 -11.42,0.16 -22.84,0.16 -34.25,0 -2.51,-0.04 -3.74,0.88 -4.91,2.92 -12.69,22.16 -25.44,44.29 -38.2,66.41 -5.19,9 -10.44,17.97 -15.79,27.18 -2.44,-1.42 -4.65,-2.7 -7.05,-4.1 17.78,-30.82 35.39,-61.35 53.12,-92.09 -19.28,0 -37.94,0 -56.67,0 0,57.82 0,115.36 0,173.09 57.81,0 115.44,0 173.09,0 0,-57.87 0,-115.51 0,-173.05 -18.89,0 -37.5,0 -56.51,0 17.85,30.94 35.46,61.46 53.15,92.12 -2.6,1.47 -4.74,2.68 -6.99,3.95 z M 505.49,322.61 c -5.38,-9.29 -10.4,-17.97 -15.61,-26.96 -5.28,9.18 -10.28,17.89 -15.49,26.96 10.6,0 20.51,0 31.1,0 z"
     id="path70"
     style="fill:#de9400;fill-opacity:1" /><path
     d="m 546.87,518.51 c -19.15,19.15 -38.07,38.06 -56.78,56.77 -18.75,-18.78 -37.7,-37.77 -56.67,-56.77 37.5,0 75.38,0 113.45,0 z"
     id="path72"
     style="fill:#de9400;fill-opacity:1" /><path
     d="m 342.66,427.88 c 15.45,-15.52 30.98,-31.12 46.43,-46.64 0,30.86 0,62.03 0,93.1 -15.67,-15.68 -31.24,-31.26 -46.43,-46.46 z"
     id="path74"
     style="fill:#de9400;fill-opacity:1" /><path
     d="m 590.62,474.05 c 0,-30.89 0,-61.99 0,-92.58 15.33,15.45 30.87,31.1 46.17,46.51 -14.82,14.8 -30.46,30.4 -46.17,46.07 z"
     id="path76"
     style="fill:#de9400;fill-opacity:1" /></g>
</svg>
